<svg width="73" height="88" viewBox="0 0 73 88" fill="none" xmlns="http://www.w3.org/2000/svg">
<path d="M51.9271 33.3794C50.8176 35.0116 48.9278 36.0886 46.784 36.0886C44.6401 36.0886 42.7503 35.0116 41.6434 33.3794C40.5338 35.0116 38.6441 36.0886 36.5028 36.0886C34.3589 36.0886 32.4691 35.0116 31.3622 33.3794C30.2526 35.0116 28.3629 36.0886 26.2216 36.0886C24.0777 36.0886 22.1879 35.0116 21.0784 33.3794C20.0441 34.9021 18.3254 35.9359 16.3604 36.0683V62.2317H24.9876L24.9824 42.5946C24.9824 42.0319 25.4465 41.5761 26.0194 41.5761H46.981C47.5539 41.5761 48.0179 42.0319 48.0179 42.5946V62.2343H56.6452V36.0683C54.6776 35.9359 52.9615 34.9021 51.9271 33.3794Z" fill="white"/>
<path d="M52.9536 24.3936V29.4073C52.9536 29.5091 52.9328 29.6059 52.9043 29.6975C52.9406 29.7994 52.9639 29.9089 52.9639 30.0235C52.9639 32.2464 54.8044 34.0543 57.0702 34.0543C59.3333 34.0543 61.1738 32.2464 61.1738 30.0235L61.1712 24.3936L52.9536 24.3936Z" fill="white"/>
<path d="M22.1202 24.3936V29.4073C22.1202 29.5219 22.0968 29.6288 22.0605 29.7332C22.0891 29.8249 22.1098 29.9216 22.1098 30.0235C22.1098 32.2464 23.9503 34.0543 26.2161 34.0543C28.4792 34.0543 30.3197 32.2464 30.3197 30.0235C30.3197 29.9089 30.343 29.8019 30.3793 29.6975C30.3508 29.6059 30.3301 29.5091 30.3301 29.4073V24.3936H22.1202Z" fill="white"/>
<path d="M50.058 22.3566L46.1851 15.9908H39.7432L42.3148 22.3566H50.058Z" fill="white"/>
<path d="M40.0822 22.3566L37.5132 15.9908H35.486L32.917 22.3566H40.0822Z" fill="white"/>
<path d="M42.6674 24.3936V29.4073C42.6674 29.5091 42.6467 29.6059 42.6182 29.6975C42.6545 29.7994 42.6778 29.9089 42.6778 30.0235C42.6778 32.2464 44.5183 34.0543 46.7815 34.0543C49.0446 34.0543 50.8877 32.2464 50.8877 30.0235C50.8877 29.9216 50.9084 29.8249 50.937 29.7332C50.9007 29.6313 50.8773 29.5219 50.8773 29.4073V24.3936H42.6674Z" fill="white"/>
<path d="M27.0566 62.2317H45.9444V43.6135H27.0566V62.2317ZM35.4636 52.9226C35.4636 52.3598 35.9276 51.904 36.5005 51.904C37.0734 51.904 37.5374 52.3598 37.5374 52.9226V54.8985C37.5374 55.4612 37.0734 55.917 36.5005 55.917C35.9276 55.917 35.4636 55.4612 35.4636 54.8985V52.9226Z" fill="white"/>
<path d="M60.0675 22.3566L54.9424 15.9908H48.6016L52.4719 22.3566H60.0675Z" fill="white"/>
<path d="M20.0363 30.021C20.0363 29.9064 20.0596 29.7995 20.0959 29.6951C20.0674 29.6034 20.0466 29.5067 20.0466 29.4048V24.3912H11.8262V30.021C11.8262 32.244 13.6667 34.0518 15.9298 34.0518C18.1956 34.0518 20.0363 32.244 20.0363 30.021Z" fill="white"/>
<path d="M30.6856 22.3566L33.2572 15.9908H26.8153L22.9424 22.3566H30.6856Z" fill="white"/>
<path d="M24.3995 15.9906H18.0587L12.9336 22.3563H20.5289L24.3995 15.9906Z" fill="white"/>
<path d="M32.4063 24.3936V29.4073C32.4063 29.5219 32.383 29.6288 32.3467 29.7332C32.3752 29.8249 32.3959 29.9216 32.3959 30.0235C32.3959 32.2464 34.2365 34.0543 36.4996 34.0543C38.7627 34.0543 40.6033 32.2464 40.6033 30.0235C40.6033 29.9216 40.624 29.8249 40.6525 29.7332C40.6162 29.6313 40.5929 29.5219 40.5929 29.4073V24.3936H32.4063Z" fill="white"/>
</svg>
