<svg width="66" height="82" viewBox="0 0 66 82" fill="none" xmlns="http://www.w3.org/2000/svg">
<path fill-rule="evenodd" clip-rule="evenodd" d="M21.4336 48.1183C21.4336 48.0994 21.4381 48.0805 21.4404 48.0616L21.4427 48.0592C21.5965 46.9174 21.5483 45.7566 21.3005 44.6337C19.8343 44.2885 18.3084 44.3192 16.8561 44.7188C13.692 45.6005 11.2208 48.1467 10.3648 51.4068C9.97704 52.9033 9.94951 54.4754 10.2822 55.986C11.7484 56.3288 13.2719 56.2981 14.7243 55.8986C17.8907 55.0191 20.3619 52.4706 21.2179 49.2105C21.312 48.8512 21.3831 48.4871 21.4359 48.1206L21.4336 48.1183ZM49.6629 44.7188C48.2104 44.3193 46.6846 44.2885 45.2184 44.6337C44.9706 45.7566 44.9224 46.9174 45.0762 48.0592C45.0808 48.0782 45.0831 48.0971 45.0831 48.116L45.0854 48.1183C45.1381 48.4848 45.2093 48.8488 45.3033 49.2082C46.1592 52.4682 48.6304 55.0144 51.7946 55.8963C53.247 56.2958 54.7705 56.3265 56.2367 55.9814C56.5694 54.4731 56.5419 52.901 56.1541 51.4045C55.2983 48.1445 52.8248 45.6007 49.6629 44.7188ZM56.1336 57.2319V58.7118H33.8428V53.3359C34.1686 53.1586 34.5678 52.9576 35.0038 52.7354C36.9954 51.7331 39.7236 50.3572 40.304 48.7732H44.0119C44.0578 49.0238 44.1129 49.272 44.1771 49.5179L44.1794 49.5203C44.8586 52.1231 46.4693 54.3666 48.6858 55.7968C50.9046 57.2271 53.5662 57.7401 56.1363 57.2318L56.1336 57.2319ZM17.4669 36.7924V21.3598C15.1931 22.5182 13.7499 24.9035 13.743 27.5159V36.7924H17.4669ZM21.8448 30.0384C21.854 29.7145 22.1132 29.4568 22.4276 29.4568C22.7419 29.4568 22.9989 29.7145 23.0104 30.0384V34.0124C23.015 34.1755 22.9553 34.3339 22.8452 34.4497C22.7351 34.5656 22.5836 34.6317 22.4276 34.6317C22.2693 34.6317 22.1178 34.5656 22.0077 34.4497C21.8976 34.3339 21.8402 34.1755 21.8448 34.0124L21.8448 30.0384ZM24.5523 29.3221C24.5523 28.9911 24.8139 28.7239 25.1351 28.7239C25.4563 28.7239 25.7179 28.9911 25.7179 29.3221V34.731C25.7179 35.062 25.4563 35.3315 25.1351 35.3315C24.8139 35.3315 24.5523 35.062 24.5523 34.731V29.3221ZM27.2598 28.6057C27.2598 28.2748 27.5214 28.0053 27.8426 28.0053C28.1661 28.0053 28.4254 28.2748 28.4254 28.6057V35.4451C28.4254 35.7761 28.1661 36.0456 27.8426 36.0456C27.5214 36.0456 27.2598 35.7761 27.2598 35.4451V28.6057ZM29.9696 27.8894C29.9696 27.5584 30.2289 27.2889 30.5524 27.2889C30.8737 27.2889 31.1352 27.5584 31.1352 27.8894V36.1637C31.1352 36.4947 30.8737 36.7642 30.5524 36.7642C30.2289 36.7642 29.9696 36.4947 29.9696 36.1637V27.8894ZM43.5096 30.0384C43.5211 29.7145 43.778 29.4568 44.0924 29.4568C44.4067 29.4568 44.666 29.7145 44.6752 30.0384V34.0124C44.6798 34.1755 44.6224 34.3339 44.5123 34.4497C44.4022 34.5656 44.2507 34.6317 44.0924 34.6317C43.9364 34.6317 43.7849 34.5656 43.6748 34.4497C43.5647 34.3339 43.505 34.1755 43.5096 34.0124L43.5096 30.0384ZM40.8021 29.3221C40.8021 28.9911 41.0637 28.7239 41.3849 28.7239C41.7061 28.7239 41.9677 28.9911 41.9677 29.3221V34.731C41.9677 35.062 41.7061 35.3315 41.3849 35.3315C41.0637 35.3315 40.8021 35.062 40.8021 34.731V29.3221ZM38.0946 28.6057C38.0946 28.2748 38.3539 28.0053 38.6774 28.0053C38.9986 28.0053 39.2602 28.2748 39.2602 28.6057V35.4451C39.2602 35.7761 38.9986 36.0456 38.6774 36.0456C38.3539 36.0456 38.0946 35.7761 38.0946 35.4451V28.6057ZM35.3848 27.8894C35.3848 27.5584 35.6463 27.2889 35.9676 27.2889C36.2911 27.2889 36.5504 27.5584 36.5504 27.8894V36.1637C36.5504 36.4947 36.2911 36.7642 35.9676 36.7642C35.6463 36.7642 35.3848 36.4947 35.3848 36.1637V27.8894ZM32.6773 27.1731C32.6773 26.8421 32.9388 26.5726 33.2601 26.5726C33.5813 26.5726 33.8429 26.8421 33.8429 27.1731V36.8799C33.8429 37.2109 33.5813 37.4804 33.2601 37.4804C32.9388 37.4804 32.6773 37.2109 32.6773 36.8799V27.1731ZM44.8609 27.3126V27.3149C44.1335 24.6294 42.6926 22.2086 40.6987 20.3243C39.4574 19.1611 37.9843 18.2912 36.3827 17.7735C36.369 17.7687 36.3552 17.7664 36.3414 17.7617C35.3433 17.4496 34.3039 17.2912 33.2599 17.2912C30.4997 17.3148 27.8496 18.3952 25.8212 20.3243L25.679 20.459V20.4567C25.656 20.4827 25.6308 20.5063 25.6056 20.5276C23.7241 22.3858 22.3612 24.7285 21.659 27.3149L26.3444 26.0738L33.1152 24.2818H33.1175C33.2139 24.2558 33.3148 24.2558 33.4135 24.2818L40.1755 26.0691L44.8609 27.3102L44.8609 27.3126ZM25.0247 19.4547H20.4036C19.5432 19.4547 18.6873 19.5989 17.8728 19.8873L17.843 19.8991C16.1405 20.5114 14.6903 21.71 13.7427 23.2916V20.7762C13.7496 16.989 16.7278 13.9205 20.4037 13.9132H35.949V16.4121C35.0679 16.1969 34.1661 16.0905 33.2598 16.0905C30.215 16.1142 27.2849 17.3057 25.0458 19.4333L25.0228 19.4546L25.0247 19.4547ZM21.6587 36.7386C22.3861 39.4242 23.827 41.845 25.8209 43.7293C26.188 44.0697 26.5758 44.3865 26.9796 44.6773C27.0072 44.6938 27.0324 44.7127 27.0554 44.7316C28.8703 46.0531 31.0386 46.7647 33.2594 46.7647C35.4802 46.7647 37.6487 46.0531 39.4634 44.7316C39.4863 44.7127 39.5116 44.6938 39.5391 44.6773C39.9429 44.3865 40.3307 44.0697 40.6978 43.7293C42.6917 41.8451 44.1327 39.4243 44.86 36.7386L40.1746 37.9797L33.4015 39.7717C33.3051 39.7977 33.2041 39.7977 33.1055 39.7717L26.3434 37.9845L21.6581 36.7433L21.6587 36.7386ZM39.2504 46.2868C37.4332 47.3838 35.3659 47.9629 33.2597 47.9629C31.1534 47.9629 29.086 47.3838 27.2689 46.2868V48.1757C27.2689 49.2679 30.0567 50.6746 32.0277 51.6651C32.498 51.9015 32.9225 52.1143 33.2621 52.301C33.6017 52.1143 34.0262 51.9015 34.4966 51.6651C36.463 50.6746 39.2554 49.2703 39.2554 48.1757L39.2504 46.2868ZM45.4915 35.3388C45.5121 35.3317 45.5305 35.3269 45.5511 35.3222L46.2165 35.1473V28.9083L45.5511 28.7333C45.5305 28.7286 45.5121 28.7239 45.4915 28.7168L39.886 27.2345L33.2597 25.4804L26.6333 27.2345L21.0279 28.7168C21.0095 28.7239 20.9888 28.7286 20.9682 28.7333L20.3028 28.9083V35.1449L20.9682 35.3198C20.9888 35.3245 21.0095 35.3293 21.0279 35.3363L26.6333 36.8186L33.2597 38.5727L39.886 36.8186L45.4915 35.3363V35.3388ZM32.677 58.7122H10.3838V57.2323C13.759 57.899 17.2327 56.7997 19.6604 54.2961C20.9453 52.9746 21.87 51.3269 22.3404 49.5207C22.4046 49.2749 22.4597 49.0243 22.5056 48.776H26.2135C26.794 50.36 29.5221 51.7358 31.5137 52.7382C31.952 52.9581 32.3512 53.1614 32.6748 53.3387L32.677 58.7122Z" fill="#51DD64"/>
</svg>
