<svg width="48" height="45" viewBox="0 0 48 45" fill="none" xmlns="http://www.w3.org/2000/svg">
<path fill-rule="evenodd" clip-rule="evenodd" d="M12.122 34.2774C12.122 34.2585 12.1266 34.2396 12.1289 34.2207L12.1312 34.2183C12.2849 33.0765 12.2368 31.9157 11.989 30.7928C10.5228 30.4476 8.99691 30.4783 7.54453 30.8779C4.38044 31.7596 1.90923 34.3058 1.05329 37.5659C0.66552 39.0624 0.637989 40.6345 0.970686 42.1451C2.43687 42.4879 3.96038 42.4572 5.41282 42.0577C8.5792 41.1782 11.0504 38.6298 11.9064 35.3696C12.0005 35.0103 12.0716 34.6462 12.1244 34.2797L12.122 34.2774ZM40.3513 30.8779C38.8989 30.4784 37.3731 30.4476 35.9069 30.7928C35.6591 31.9157 35.6109 33.0765 35.7647 34.2183C35.7692 34.2373 35.7715 34.2562 35.7715 34.2751L35.7738 34.2774C35.8266 34.6439 35.8977 35.0079 35.9918 35.3673C36.8476 38.6273 39.3188 41.1735 42.483 42.0554C43.9355 42.4549 45.459 42.4856 46.9252 42.1405C47.2579 40.6322 47.2303 39.0601 46.8426 37.5636C45.9867 34.3036 43.5133 31.7598 40.3513 30.8779ZM46.8221 43.391V44.8709H24.5312V39.495C24.857 39.3177 25.2563 39.1167 25.6923 38.8945C27.6839 37.8922 30.4121 36.5163 30.9925 34.9323H34.7004C34.7463 35.1829 34.8014 35.4311 34.8656 35.677L34.8679 35.6794C35.547 38.2822 37.1578 40.5257 39.3743 41.9559C41.593 43.3862 44.2547 43.8992 46.8247 43.3909L46.8221 43.391ZM8.1554 22.9515V7.51889C5.88155 8.67731 4.43834 11.0626 4.43147 13.675V22.9515H8.1554ZM12.5333 16.1975C12.5424 15.8736 12.8017 15.6159 13.1161 15.6159C13.4304 15.6159 13.6874 15.8736 13.6989 16.1975V20.1715C13.7035 20.3346 13.6438 20.493 13.5337 20.6088C13.4235 20.7247 13.2721 20.7909 13.1161 20.7909C12.9578 20.7909 12.8063 20.7247 12.6962 20.6088C12.586 20.493 12.5287 20.3346 12.5333 20.1715L12.5333 16.1975ZM15.2408 15.4812C15.2408 15.1502 15.5024 14.883 15.8236 14.883C16.1448 14.883 16.4064 15.1502 16.4064 15.4812V20.8901C16.4064 21.2211 16.1448 21.4906 15.8236 21.4906C15.5024 21.4906 15.2408 21.2211 15.2408 20.8901V15.4812ZM17.9483 14.7648C17.9483 14.4339 18.2099 14.1644 18.5311 14.1644C18.8546 14.1644 19.1139 14.4339 19.1139 14.7648V21.6042C19.1139 21.9352 18.8546 22.2047 18.5311 22.2047C18.2099 22.2047 17.9483 21.9352 17.9483 21.6042V14.7648ZM20.6581 14.0485C20.6581 13.7176 20.9174 13.4481 21.2409 13.4481C21.5621 13.4481 21.8237 13.7176 21.8237 14.0485V22.3228C21.8237 22.6538 21.5621 22.9233 21.2409 22.9233C20.9174 22.9233 20.6581 22.6538 20.6581 22.3228V14.0485ZM34.1981 16.1975C34.2095 15.8736 34.4665 15.6159 34.7809 15.6159C35.0952 15.6159 35.3545 15.8736 35.3637 16.1975V20.1715C35.3683 20.3346 35.3109 20.493 35.2008 20.6088C35.0906 20.7247 34.9392 20.7909 34.7809 20.7909C34.6249 20.7909 34.4734 20.7247 34.3633 20.6088C34.2532 20.493 34.1935 20.3346 34.1981 20.1715L34.1981 16.1975ZM31.4906 15.4812C31.4906 15.1502 31.7521 14.883 32.0734 14.883C32.3946 14.883 32.6562 15.1502 32.6562 15.4812V20.8901C32.6562 21.2211 32.3946 21.4906 32.0734 21.4906C31.7521 21.4906 31.4906 21.2211 31.4906 20.8901V15.4812ZM28.783 14.7648C28.783 14.4339 29.0423 14.1644 29.3659 14.1644C29.6871 14.1644 29.9487 14.4339 29.9487 14.7648V21.6042C29.9487 21.9352 29.6871 22.2047 29.3659 22.2047C29.0423 22.2047 28.783 21.9352 28.783 21.6042V14.7648ZM26.0732 14.0485C26.0732 13.7176 26.3348 13.4481 26.656 13.4481C26.9796 13.4481 27.2388 13.7176 27.2388 14.0485V22.3228C27.2388 22.6538 26.9796 22.9233 26.656 22.9233C26.3348 22.9233 26.0732 22.6538 26.0732 22.3228V14.0485ZM23.3657 13.3322C23.3657 13.0012 23.6273 12.7317 23.9485 12.7317C24.2698 12.7317 24.5313 13.0012 24.5313 13.3322V23.039C24.5313 23.37 24.2698 23.6395 23.9485 23.6395C23.6273 23.6395 23.3657 23.37 23.3657 23.039V13.3322ZM35.5494 13.4717V13.4741C34.822 10.7885 33.3811 8.36767 31.3872 6.48338C30.1459 5.32024 28.6728 4.45027 27.0712 3.93258C27.0575 3.92785 27.0437 3.92548 27.0299 3.92076C26.0318 3.6087 24.9924 3.45031 23.9484 3.45031C21.1882 3.47395 18.538 4.55432 16.5097 6.4834L16.3675 6.61815V6.61578C16.3445 6.64179 16.3193 6.66543 16.294 6.68671C14.4126 8.54486 13.0496 10.8877 12.3475 13.474L17.0328 12.2329L23.8037 10.441H23.806C23.9024 10.4149 24.0033 10.4149 24.102 10.441L30.864 12.2282L35.5494 13.4693L35.5494 13.4717ZM15.7132 5.61376H11.0921C10.2317 5.61376 9.37582 5.75797 8.56128 6.04638L8.53145 6.0582C6.82896 6.67048 5.37882 7.86909 4.43118 9.45066V6.93532C4.43807 3.14809 7.4163 0.0796043 11.0922 0.0723419H26.6374V2.57116C25.7564 2.35603 24.8546 2.24964 23.9483 2.24964C20.9035 2.27328 17.9734 3.46477 15.7343 5.59241L15.7113 5.61369L15.7132 5.61376ZM12.3472 22.8977C13.0745 25.5833 14.5155 28.0041 16.5094 29.8884C16.8765 30.2288 17.2643 30.5456 17.6681 30.8364C17.6956 30.8529 17.7209 30.8718 17.7438 30.8907C19.5587 32.2122 21.727 32.9238 23.9478 32.9238C26.1686 32.9238 28.3372 32.2122 30.1518 30.8907C30.1748 30.8718 30.2 30.8529 30.2276 30.8364C30.6314 30.5456 31.0192 30.2288 31.3863 29.8884C33.3802 28.0042 34.8212 25.5834 35.5485 22.8977L30.8631 24.1388L24.0899 25.9308C23.9936 25.9568 23.8926 25.9568 23.7939 25.9308L17.0319 24.1436L12.3465 22.9024L12.3472 22.8977ZM29.9389 32.446C28.1216 33.5429 26.0543 34.1221 23.9481 34.1221C21.8419 34.1221 19.7744 33.5429 17.9573 32.446V34.3348C17.9573 35.427 20.7452 36.8337 22.7161 37.8242C23.1865 38.0606 23.611 38.2734 23.9506 38.4601C24.2902 38.2734 24.7147 38.0606 25.1851 37.8242C27.1515 36.8337 29.9438 35.4294 29.9438 34.3348L29.9389 32.446ZM36.1799 21.4979C36.2006 21.4908 36.2189 21.486 36.2396 21.4813L36.905 21.3064V15.0674L36.2396 14.8924C36.2189 14.8877 36.2006 14.883 36.1799 14.8759L30.5745 13.3936L23.9481 11.6395L17.3218 13.3936L11.7163 14.8759C11.698 14.883 11.6773 14.8877 11.6567 14.8924L10.9913 15.0674V21.304L11.6567 21.4789C11.6773 21.4836 11.698 21.4884 11.7163 21.4954L17.3218 22.9777L23.9481 24.7318L30.5745 22.9777L36.1799 21.4954V21.4979ZM23.3654 44.8713H1.07224V43.3914C4.44744 44.0581 7.92121 42.9588 10.3489 40.4552C11.6338 39.1337 12.5585 37.486 13.0289 35.6798C13.0931 35.434 13.1482 35.1834 13.1941 34.9351H16.902C17.4825 36.5191 20.2106 37.8949 22.2022 38.8973C22.6404 39.1172 23.0397 39.3205 23.3632 39.4978L23.3654 44.8713Z" fill="#2029CC"/>
</svg>
