<svg width="66" height="82" viewBox="0 0 66 82" fill="none" xmlns="http://www.w3.org/2000/svg">
<path fill-rule="evenodd" clip-rule="evenodd" d="M21.1211 48.1183C21.1211 48.0994 21.1256 48.0805 21.1279 48.0616L21.1302 48.0592C21.284 46.9174 21.2358 45.7566 20.988 44.6337C19.5218 44.2885 17.9959 44.3192 16.5436 44.7188C13.3795 45.6005 10.9083 48.1467 10.0523 51.4068C9.66454 52.9033 9.63701 54.4754 9.96971 55.986C11.4359 56.3288 12.9594 56.2981 14.4118 55.8986C17.5782 55.0191 20.0494 52.4706 20.9054 49.2105C20.9995 48.8512 21.0706 48.4871 21.1234 48.1206L21.1211 48.1183ZM49.3504 44.7188C47.8979 44.3193 46.3721 44.2885 44.9059 44.6337C44.6581 45.7566 44.6099 46.9174 44.7637 48.0592C44.7683 48.0782 44.7706 48.0971 44.7706 48.116L44.7729 48.1183C44.8256 48.4848 44.8968 48.8488 44.9908 49.2082C45.8467 52.4682 48.3179 55.0144 51.4821 55.8963C52.9345 56.2958 54.458 56.3265 55.9242 55.9814C56.2569 54.4731 56.2294 52.901 55.8416 51.4045C54.9858 48.1445 52.5123 45.6007 49.3504 44.7188ZM55.8211 57.2319V58.7118H33.5303V53.3359C33.8561 53.1586 34.2553 52.9576 34.6913 52.7354C36.6829 51.7331 39.4111 50.3572 39.9915 48.7732H43.6994C43.7453 49.0238 43.8004 49.272 43.8646 49.5179L43.8669 49.5203C44.5461 52.1231 46.1568 54.3666 48.3733 55.7968C50.5921 57.2271 53.2537 57.7401 55.8238 57.2318L55.8211 57.2319ZM17.1544 36.7924V21.3598C14.8806 22.5182 13.4374 24.9035 13.4305 27.5159V36.7924H17.1544ZM21.5323 30.0384C21.5415 29.7145 21.8007 29.4568 22.1151 29.4568C22.4294 29.4568 22.6864 29.7145 22.6979 30.0384V34.0124C22.7025 34.1755 22.6428 34.3339 22.5327 34.4497C22.4226 34.5656 22.2711 34.6317 22.1151 34.6317C21.9568 34.6317 21.8053 34.5656 21.6952 34.4497C21.5851 34.3339 21.5277 34.1755 21.5323 34.0124L21.5323 30.0384ZM24.2398 29.3221C24.2398 28.9911 24.5014 28.7239 24.8226 28.7239C25.1438 28.7239 25.4054 28.9911 25.4054 29.3221V34.731C25.4054 35.062 25.1438 35.3315 24.8226 35.3315C24.5014 35.3315 24.2398 35.062 24.2398 34.731V29.3221ZM26.9473 28.6057C26.9473 28.2748 27.2089 28.0053 27.5301 28.0053C27.8536 28.0053 28.1129 28.2748 28.1129 28.6057V35.4451C28.1129 35.7761 27.8536 36.0456 27.5301 36.0456C27.2089 36.0456 26.9473 35.7761 26.9473 35.4451V28.6057ZM29.6571 27.8894C29.6571 27.5584 29.9164 27.2889 30.2399 27.2889C30.5612 27.2889 30.8227 27.5584 30.8227 27.8894V36.1637C30.8227 36.4947 30.5612 36.7642 30.2399 36.7642C29.9164 36.7642 29.6571 36.4947 29.6571 36.1637V27.8894ZM43.1971 30.0384C43.2086 29.7145 43.4655 29.4568 43.7799 29.4568C44.0942 29.4568 44.3535 29.7145 44.3627 30.0384V34.0124C44.3673 34.1755 44.3099 34.3339 44.1998 34.4497C44.0897 34.5656 43.9382 34.6317 43.7799 34.6317C43.6239 34.6317 43.4724 34.5656 43.3623 34.4497C43.2522 34.3339 43.1925 34.1755 43.1971 34.0124L43.1971 30.0384ZM40.4896 29.3221C40.4896 28.9911 40.7512 28.7239 41.0724 28.7239C41.3936 28.7239 41.6552 28.9911 41.6552 29.3221V34.731C41.6552 35.062 41.3936 35.3315 41.0724 35.3315C40.7512 35.3315 40.4896 35.062 40.4896 34.731V29.3221ZM37.7821 28.6057C37.7821 28.2748 38.0414 28.0053 38.3649 28.0053C38.6861 28.0053 38.9477 28.2748 38.9477 28.6057V35.4451C38.9477 35.7761 38.6861 36.0456 38.3649 36.0456C38.0414 36.0456 37.7821 35.7761 37.7821 35.4451V28.6057ZM35.0723 27.8894C35.0723 27.5584 35.3338 27.2889 35.6551 27.2889C35.9786 27.2889 36.2379 27.5584 36.2379 27.8894V36.1637C36.2379 36.4947 35.9786 36.7642 35.6551 36.7642C35.3338 36.7642 35.0723 36.4947 35.0723 36.1637V27.8894ZM32.3648 27.1731C32.3648 26.8421 32.6263 26.5726 32.9476 26.5726C33.2688 26.5726 33.5304 26.8421 33.5304 27.1731V36.8799C33.5304 37.2109 33.2688 37.4804 32.9476 37.4804C32.6263 37.4804 32.3648 37.2109 32.3648 36.8799V27.1731ZM44.5484 27.3126V27.3149C43.821 24.6294 42.3801 22.2086 40.3862 20.3243C39.1449 19.1611 37.6718 18.2912 36.0702 17.7735C36.0565 17.7687 36.0427 17.7664 36.0289 17.7617C35.0308 17.4496 33.9914 17.2912 32.9474 17.2912C30.1872 17.3148 27.5371 18.3952 25.5087 20.3243L25.3665 20.459V20.4567C25.3435 20.4827 25.3183 20.5063 25.2931 20.5276C23.4116 22.3858 22.0487 24.7285 21.3465 27.3149L26.0319 26.0738L32.8027 24.2818H32.805C32.9014 24.2558 33.0023 24.2558 33.101 24.2818L39.863 26.0691L44.5484 27.3102L44.5484 27.3126ZM24.7122 19.4547H20.0911C19.2307 19.4547 18.3748 19.5989 17.5603 19.8873L17.5305 19.8991C15.828 20.5114 14.3778 21.71 13.4302 23.2916V20.7762C13.4371 16.989 16.4153 13.9205 20.0912 13.9132H35.6365V16.4121C34.7554 16.1969 33.8536 16.0905 32.9473 16.0905C29.9025 16.1142 26.9724 17.3057 24.7333 19.4333L24.7103 19.4546L24.7122 19.4547ZM21.3462 36.7386C22.0736 39.4242 23.5145 41.845 25.5084 43.7293C25.8755 44.0697 26.2633 44.3865 26.6671 44.6773C26.6947 44.6938 26.7199 44.7127 26.7429 44.7316C28.5578 46.0531 30.7261 46.7647 32.9469 46.7647C35.1677 46.7647 37.3362 46.0531 39.1509 44.7316C39.1738 44.7127 39.1991 44.6938 39.2266 44.6773C39.6304 44.3865 40.0182 44.0697 40.3853 43.7293C42.3792 41.8451 43.8202 39.4243 44.5475 36.7386L39.8621 37.9797L33.089 39.7717C32.9926 39.7977 32.8916 39.7977 32.793 39.7717L26.0309 37.9845L21.3456 36.7433L21.3462 36.7386ZM38.9379 46.2868C37.1207 47.3838 35.0534 47.9629 32.9472 47.9629C30.8409 47.9629 28.7735 47.3838 26.9564 46.2868V48.1757C26.9564 49.2679 29.7442 50.6746 31.7152 51.6651C32.1855 51.9015 32.61 52.1143 32.9496 52.301C33.2892 52.1143 33.7137 51.9015 34.1841 51.6651C36.1505 50.6746 38.9429 49.2703 38.9429 48.1757L38.9379 46.2868ZM45.179 35.3388C45.1996 35.3317 45.218 35.3269 45.2386 35.3222L45.904 35.1473V28.9083L45.2386 28.7333C45.218 28.7286 45.1996 28.7239 45.179 28.7168L39.5735 27.2345L32.9472 25.4804L26.3208 27.2345L20.7154 28.7168C20.697 28.7239 20.6763 28.7286 20.6557 28.7333L19.9903 28.9083V35.1449L20.6557 35.3198C20.6763 35.3245 20.697 35.3293 20.7154 35.3363L26.3208 36.8186L32.9472 38.5727L39.5735 36.8186L45.179 35.3363V35.3388ZM32.3645 58.7122H10.0713V57.2323C13.4465 57.899 16.9202 56.7997 19.3479 54.2961C20.6328 52.9746 21.5575 51.3269 22.0279 49.5207C22.0921 49.2749 22.1472 49.0243 22.1931 48.776H25.901C26.4815 50.36 29.2096 51.7358 31.2012 52.7382C31.6395 52.9581 32.0387 53.1614 32.3623 53.3387L32.3645 58.7122Z" fill="#CC2020"/>
</svg>
