<svg width="48" height="45" viewBox="0 0 48 45" fill="none" xmlns="http://www.w3.org/2000/svg">
<path fill-rule="evenodd" clip-rule="evenodd" d="M12.1728 34.2774C12.1728 34.2585 12.1774 34.2396 12.1797 34.2207L12.182 34.2183C12.3357 33.0765 12.2875 31.9157 12.0397 30.7928C10.5736 30.4476 9.04769 30.4783 7.59531 30.8779C4.43122 31.7596 1.96002 34.3058 1.10407 37.5659C0.716301 39.0624 0.68877 40.6345 1.02147 42.1451C2.48765 42.4879 4.01116 42.4572 5.4636 42.0577C8.62998 41.1782 11.1012 38.6298 11.9572 35.3696C12.0513 35.0103 12.1224 34.6462 12.1752 34.2797L12.1728 34.2774ZM40.4021 30.8779C38.9497 30.4784 37.4239 30.4476 35.9577 30.7928C35.7099 31.9157 35.6617 33.0765 35.8154 34.2183C35.82 34.2373 35.8223 34.2562 35.8223 34.2751L35.8246 34.2774C35.8774 34.6439 35.9485 35.0079 36.0426 35.3673C36.8984 38.6273 39.3696 41.1735 42.5338 42.0554C43.9863 42.4549 45.5098 42.4856 46.976 42.1405C47.3087 40.6322 47.2811 39.0601 46.8934 37.5636C46.0375 34.3036 43.564 31.7598 40.4021 30.8779ZM46.8729 43.391V44.8709H24.582V39.495C24.9078 39.3177 25.3071 39.1167 25.743 38.8945C27.7346 37.8922 30.4628 36.5163 31.0433 34.9323H34.7512C34.7971 35.1829 34.8521 35.4311 34.9164 35.677L34.9187 35.6794C35.5978 38.2822 37.2086 40.5257 39.4251 41.9559C41.6438 43.3862 44.3055 43.8992 46.8755 43.3909L46.8729 43.391ZM8.20618 22.9515V7.51889C5.93234 8.67731 4.48912 11.0626 4.48225 13.675V22.9515H8.20618ZM12.5841 16.1975C12.5932 15.8736 12.8525 15.6159 13.1669 15.6159C13.4812 15.6159 13.7382 15.8736 13.7497 16.1975V20.1715C13.7542 20.3346 13.6946 20.493 13.5845 20.6088C13.4743 20.7247 13.3229 20.7909 13.1669 20.7909C13.0085 20.7909 12.8571 20.7247 12.747 20.6088C12.6368 20.493 12.5795 20.3346 12.5841 20.1715L12.5841 16.1975ZM15.2916 15.4812C15.2916 15.1502 15.5531 14.883 15.8744 14.883C16.1956 14.883 16.4572 15.1502 16.4572 15.4812V20.8901C16.4572 21.2211 16.1956 21.4906 15.8744 21.4906C15.5531 21.4906 15.2916 21.2211 15.2916 20.8901V15.4812ZM17.9991 14.7648C17.9991 14.4339 18.2606 14.1644 18.5819 14.1644C18.9054 14.1644 19.1647 14.4339 19.1647 14.7648V21.6042C19.1647 21.9352 18.9054 22.2047 18.5819 22.2047C18.2606 22.2047 17.9991 21.9352 17.9991 21.6042V14.7648ZM20.7089 14.0485C20.7089 13.7176 20.9682 13.4481 21.2917 13.4481C21.6129 13.4481 21.8745 13.7176 21.8745 14.0485V22.3228C21.8745 22.6538 21.6129 22.9233 21.2917 22.9233C20.9682 22.9233 20.7089 22.6538 20.7089 22.3228V14.0485ZM34.2489 16.1975C34.2603 15.8736 34.5173 15.6159 34.8317 15.6159C35.146 15.6159 35.4053 15.8736 35.4145 16.1975V20.1715C35.419 20.3346 35.3617 20.493 35.2516 20.6088C35.1414 20.7247 34.99 20.7909 34.8317 20.7909C34.6756 20.7909 34.5242 20.7247 34.4141 20.6088C34.3039 20.493 34.2443 20.3346 34.2489 20.1715L34.2489 16.1975ZM31.5413 15.4812C31.5413 15.1502 31.8029 14.883 32.1241 14.883C32.4454 14.883 32.7069 15.1502 32.7069 15.4812V20.8901C32.7069 21.2211 32.4454 21.4906 32.1241 21.4906C31.8029 21.4906 31.5413 21.2211 31.5413 20.8901V15.4812ZM28.8338 14.7648C28.8338 14.4339 29.0931 14.1644 29.4166 14.1644C29.7379 14.1644 29.9994 14.4339 29.9994 14.7648V21.6042C29.9994 21.9352 29.7379 22.2047 29.4166 22.2047C29.0931 22.2047 28.8338 21.9352 28.8338 21.6042V14.7648ZM26.124 14.0485C26.124 13.7176 26.3856 13.4481 26.7068 13.4481C27.0303 13.4481 27.2896 13.7176 27.2896 14.0485V22.3228C27.2896 22.6538 27.0303 22.9233 26.7068 22.9233C26.3856 22.9233 26.124 22.6538 26.124 22.3228V14.0485ZM23.4165 13.3322C23.4165 13.0012 23.6781 12.7317 23.9993 12.7317C24.3205 12.7317 24.5821 13.0012 24.5821 13.3322V23.039C24.5821 23.37 24.3205 23.6395 23.9993 23.6395C23.6781 23.6395 23.4165 23.37 23.4165 23.039V13.3322ZM35.6001 13.4717V13.4741C34.8728 10.7885 33.4319 8.36767 31.438 6.48338C30.1966 5.32024 28.7236 4.45027 27.122 3.93258C27.1082 3.92785 27.0945 3.92548 27.0807 3.92076C26.0826 3.6087 25.0432 3.45031 23.9992 3.45031C21.2389 3.47395 18.5888 4.55432 16.5605 6.4834L16.4182 6.61815V6.61578C16.3953 6.64179 16.3701 6.66543 16.3448 6.68671C14.4633 8.54486 13.1004 10.8877 12.3983 13.474L17.0836 12.2329L23.8545 10.441H23.8568C23.9531 10.4149 24.0541 10.4149 24.1528 10.441L30.9148 12.2282L35.6002 13.4693L35.6001 13.4717ZM15.764 5.61376H11.1429C10.2825 5.61376 9.4266 5.75797 8.61206 6.04638L8.58224 6.0582C6.87975 6.67048 5.4296 7.86909 4.48196 9.45066V6.93532C4.48885 3.14809 7.46708 0.0796043 11.143 0.0723419H26.6882V2.57116C25.8071 2.35603 24.9054 2.24964 23.9991 2.24964C20.9543 2.27328 18.0242 3.46477 15.785 5.59241L15.7621 5.61369L15.764 5.61376ZM12.398 22.8977C13.1253 25.5833 14.5663 28.0041 16.5602 29.8884C16.9273 30.2288 17.3151 30.5456 17.7189 30.8364C17.7464 30.8529 17.7717 30.8718 17.7946 30.8907C19.6095 32.2122 21.7778 32.9238 23.9986 32.9238C26.2194 32.9238 28.388 32.2122 30.2026 30.8907C30.2256 30.8718 30.2508 30.8529 30.2784 30.8364C30.6822 30.5456 31.07 30.2288 31.4371 29.8884C33.431 28.0042 34.872 25.5834 35.5993 22.8977L30.9139 24.1388L24.1407 25.9308C24.0443 25.9568 23.9434 25.9568 23.8447 25.9308L17.0827 24.1436L12.3973 22.9024L12.398 22.8977ZM29.9897 32.446C28.1724 33.5429 26.1051 34.1221 23.9989 34.1221C21.8927 34.1221 19.8252 33.5429 18.0081 32.446V34.3348C18.0081 35.427 20.7959 36.8337 22.7669 37.8242C23.2373 38.0606 23.6618 38.2734 24.0014 38.4601C24.341 38.2734 24.7655 38.0606 25.2358 37.8242C27.2022 36.8337 29.9946 35.4294 29.9946 34.3348L29.9897 32.446ZM36.2307 21.4979C36.2514 21.4908 36.2697 21.486 36.2904 21.4813L36.9558 21.3064V15.0674L36.2904 14.8924C36.2697 14.8877 36.2514 14.883 36.2307 14.8759L30.6253 13.3936L23.9989 11.6395L17.3726 13.3936L11.7671 14.8759C11.7488 14.883 11.7281 14.8877 11.7075 14.8924L11.0421 15.0674V21.304L11.7075 21.4789C11.7281 21.4836 11.7488 21.4884 11.7671 21.4954L17.3726 22.9777L23.9989 24.7318L30.6253 22.9777L36.2307 21.4954V21.4979ZM23.4162 44.8713H1.12302V43.3914C4.49822 44.0581 7.97199 42.9588 10.3997 40.4552C11.6846 39.1337 12.6093 37.486 13.0796 35.6798C13.1439 35.434 13.1989 35.1834 13.2448 34.9351H16.9527C17.5332 36.5191 20.2614 37.8949 22.253 38.8973C22.6912 39.1172 23.0905 39.3205 23.414 39.4978L23.4162 44.8713Z" fill="white"/>
</svg>
