<svg width="48" height="45" viewBox="0 0 48 45" fill="none" xmlns="http://www.w3.org/2000/svg">
<path fill-rule="evenodd" clip-rule="evenodd" d="M12.2666 34.2774C12.2666 34.2585 12.2712 34.2396 12.2735 34.2207L12.2757 34.2183C12.4295 33.0765 12.3813 31.9157 12.1335 30.7928C10.6673 30.4476 9.14144 30.4783 7.68906 30.8779C4.52497 31.7596 2.05377 34.3058 1.19782 37.5659C0.810051 39.0624 0.78252 40.6345 1.11522 42.1451C2.5814 42.4879 4.10491 42.4572 5.55735 42.0577C8.72373 41.1782 11.1949 38.6298 12.0509 35.3696C12.145 35.0103 12.2161 34.6462 12.2689 34.2797L12.2666 34.2774ZM40.4959 30.8779C39.0434 30.4784 37.5176 30.4476 36.0514 30.7928C35.8036 31.9157 35.7555 33.0765 35.9092 34.2183C35.9138 34.2373 35.9161 34.2562 35.9161 34.2751L35.9184 34.2774C35.9711 34.6439 36.0423 35.0079 36.1363 35.3673C36.9922 38.6273 39.4634 41.1735 42.6276 42.0554C44.08 42.4549 45.6035 42.4856 47.0697 42.1405C47.4024 40.6322 47.3749 39.0601 46.9871 37.5636C46.1313 34.3036 43.6578 31.7598 40.4959 30.8779ZM46.9666 43.391V44.8709H24.6758V39.495C25.0016 39.3177 25.4008 39.1167 25.8368 38.8945C27.8284 37.8922 30.5566 36.5163 31.137 34.9323H34.8449C34.8908 35.1829 34.9459 35.4311 35.0101 35.677L35.0124 35.6794C35.6916 38.2822 37.3023 40.5257 39.5188 41.9559C41.7376 43.3862 44.3992 43.8992 46.9693 43.3909L46.9666 43.391ZM8.29993 22.9515V7.51889C6.02609 8.67731 4.58287 11.0626 4.576 13.675V22.9515H8.29993ZM12.6778 16.1975C12.687 15.8736 12.9463 15.6159 13.2606 15.6159C13.575 15.6159 13.8319 15.8736 13.8434 16.1975V20.1715C13.848 20.3346 13.7883 20.493 13.6782 20.6088C13.5681 20.7247 13.4166 20.7909 13.2606 20.7909C13.1023 20.7909 12.9508 20.7247 12.8407 20.6088C12.7306 20.493 12.6732 20.3346 12.6778 20.1715L12.6778 16.1975ZM15.3853 15.4812C15.3853 15.1502 15.6469 14.883 15.9681 14.883C16.2893 14.883 16.5509 15.1502 16.5509 15.4812V20.8901C16.5509 21.2211 16.2893 21.4906 15.9681 21.4906C15.6469 21.4906 15.3853 21.2211 15.3853 20.8901V15.4812ZM18.0928 14.7648C18.0928 14.4339 18.3544 14.1644 18.6756 14.1644C18.9992 14.1644 19.2584 14.4339 19.2584 14.7648V21.6042C19.2584 21.9352 18.9992 22.2047 18.6756 22.2047C18.3544 22.2047 18.0928 21.9352 18.0928 21.6042V14.7648ZM20.8026 14.0485C20.8026 13.7176 21.0619 13.4481 21.3854 13.4481C21.7067 13.4481 21.9682 13.7176 21.9682 14.0485V22.3228C21.9682 22.6538 21.7067 22.9233 21.3854 22.9233C21.0619 22.9233 20.8026 22.6538 20.8026 22.3228V14.0485ZM34.3426 16.1975C34.3541 15.8736 34.6111 15.6159 34.9254 15.6159C35.2398 15.6159 35.499 15.8736 35.5082 16.1975V20.1715C35.5128 20.3346 35.4554 20.493 35.3453 20.6088C35.2352 20.7247 35.0837 20.7909 34.9254 20.7909C34.7694 20.7909 34.618 20.7247 34.5078 20.6088C34.3977 20.493 34.338 20.3346 34.3426 20.1715L34.3426 16.1975ZM31.6351 15.4812C31.6351 15.1502 31.8967 14.883 32.2179 14.883C32.5391 14.883 32.8007 15.1502 32.8007 15.4812V20.8901C32.8007 21.2211 32.5391 21.4906 32.2179 21.4906C31.8967 21.4906 31.6351 21.2211 31.6351 20.8901V15.4812ZM28.9276 14.7648C28.9276 14.4339 29.1869 14.1644 29.5104 14.1644C29.8316 14.1644 30.0932 14.4339 30.0932 14.7648V21.6042C30.0932 21.9352 29.8316 22.2047 29.5104 22.2047C29.1869 22.2047 28.9276 21.9352 28.9276 21.6042V14.7648ZM26.2178 14.0485C26.2178 13.7176 26.4793 13.4481 26.8006 13.4481C27.1241 13.4481 27.3834 13.7176 27.3834 14.0485V22.3228C27.3834 22.6538 27.1241 22.9233 26.8006 22.9233C26.4793 22.9233 26.2178 22.6538 26.2178 22.3228V14.0485ZM23.5103 13.3322C23.5103 13.0012 23.7718 12.7317 24.0931 12.7317C24.4143 12.7317 24.6759 13.0012 24.6759 13.3322V23.039C24.6759 23.37 24.4143 23.6395 24.0931 23.6395C23.7718 23.6395 23.5103 23.37 23.5103 23.039V13.3322ZM35.6939 13.4717V13.4741C34.9665 10.7885 33.5256 8.36767 31.5317 6.48338C30.2904 5.32024 28.8173 4.45027 27.2158 3.93258C27.202 3.92785 27.1882 3.92548 27.1745 3.92076C26.1764 3.6087 25.1369 3.45031 24.0929 3.45031C21.3327 3.47395 18.6826 4.55432 16.6542 6.4834L16.512 6.61815V6.61578C16.489 6.64179 16.4638 6.66543 16.4386 6.68671C14.5571 8.54486 13.1942 10.8877 12.492 13.474L17.1774 12.2329L23.9482 10.441H23.9505C24.0469 10.4149 24.1478 10.4149 24.2465 10.441L31.0085 12.2282L35.6939 13.4693L35.6939 13.4717ZM15.8578 5.61376H11.2366C10.3762 5.61376 9.52035 5.75797 8.70581 6.04638L8.67599 6.0582C6.9735 6.67048 5.52335 7.86909 4.57571 9.45066V6.93532C4.5826 3.14809 7.56083 0.0796043 11.2367 0.0723419H26.782V2.57116C25.9009 2.35603 24.9991 2.24964 24.0928 2.24964C21.0481 2.27328 18.1179 3.46477 15.8788 5.59241L15.8558 5.61369L15.8578 5.61376ZM12.4917 22.8977C13.2191 25.5833 14.66 28.0041 16.6539 29.8884C17.021 30.2288 17.4088 30.5456 17.8126 30.8364C17.8402 30.8529 17.8654 30.8718 17.8884 30.8907C19.7033 32.2122 21.8716 32.9238 24.0924 32.9238C26.3132 32.9238 28.4818 32.2122 30.2964 30.8907C30.3193 30.8718 30.3446 30.8529 30.3721 30.8364C30.7759 30.5456 31.1637 30.2288 31.5308 29.8884C33.5247 28.0042 34.9657 25.5834 35.693 22.8977L31.0077 24.1388L24.2345 25.9308C24.1381 25.9568 24.0371 25.9568 23.9385 25.9308L17.1764 24.1436L12.4911 22.9024L12.4917 22.8977ZM30.0834 32.446C28.2662 33.5429 26.1989 34.1221 24.0927 34.1221C21.9865 34.1221 19.919 33.5429 18.1019 32.446V34.3348C18.1019 35.427 20.8897 36.8337 22.8607 37.8242C23.331 38.0606 23.7555 38.2734 24.0951 38.4601C24.4347 38.2734 24.8592 38.0606 25.3296 37.8242C27.296 36.8337 30.0884 35.4294 30.0884 34.3348L30.0834 32.446ZM36.3245 21.4979C36.3451 21.4908 36.3635 21.486 36.3841 21.4813L37.0495 21.3064V15.0674L36.3841 14.8924C36.3635 14.8877 36.3451 14.883 36.3245 14.8759L30.719 13.3936L24.0927 11.6395L17.4663 13.3936L11.8609 14.8759C11.8425 14.883 11.8219 14.8877 11.8012 14.8924L11.1358 15.0674V21.304L11.8012 21.4789C11.8219 21.4836 11.8425 21.4884 11.8609 21.4954L17.4663 22.9777L24.0927 24.7318L30.719 22.9777L36.3245 21.4954V21.4979ZM23.51 44.8713H1.21677V43.3914C4.59197 44.0581 8.06574 42.9588 10.4934 40.4552C11.7783 39.1337 12.703 37.486 13.1734 35.6798C13.2376 35.434 13.2927 35.1834 13.3386 34.9351H17.0465C17.627 36.5191 20.3551 37.8949 22.3467 38.8973C22.785 39.1172 23.1842 39.3205 23.5078 39.4978L23.51 44.8713Z" fill="black"/>
</svg>
