<svg width="47" height="45" viewBox="0 0 47 45" fill="none" xmlns="http://www.w3.org/2000/svg">
<path fill-rule="evenodd" clip-rule="evenodd" d="M11.9609 34.2774C11.9609 34.2585 11.9655 34.2396 11.9678 34.2207L11.9701 34.2183C12.1238 33.0765 12.0756 31.9157 11.8278 30.7928C10.3616 30.4476 8.83578 30.4783 7.3834 30.8779C4.21931 31.7596 1.7481 34.3058 0.892158 37.5659C0.504387 39.0624 0.476856 40.6345 0.809553 42.1451C2.27574 42.4879 3.79925 42.4572 5.25169 42.0577C8.41807 41.1782 10.8893 38.6298 11.7453 35.3696C11.8394 35.0103 11.9105 34.6462 11.9633 34.2797L11.9609 34.2774ZM40.1902 30.8779C38.7378 30.4784 37.212 30.4476 35.7458 30.7928C35.498 31.9157 35.4498 33.0765 35.6035 34.2183C35.6081 34.2373 35.6104 34.2562 35.6104 34.2751L35.6127 34.2774C35.6655 34.6439 35.7366 35.0079 35.8307 35.3673C36.6865 38.6273 39.1577 41.1735 42.3219 42.0554C43.7744 42.4549 45.2979 42.4856 46.764 42.1405C47.0967 40.6322 47.0692 39.0601 46.6814 37.5636C45.8256 34.3036 43.3521 31.7598 40.1902 30.8779ZM46.6609 43.391V44.8709H24.3701V39.495C24.6959 39.3177 25.0952 39.1167 25.5311 38.8945C27.5227 37.8922 30.2509 36.5163 30.8314 34.9323H34.5393C34.5852 35.1829 34.6402 35.4311 34.7045 35.677L34.7068 35.6794C35.3859 38.2822 36.9967 40.5257 39.2132 41.9559C41.4319 43.3862 44.0936 43.8992 46.6636 43.3909L46.6609 43.391ZM7.99426 22.9515V7.51889C5.72042 8.67731 4.27721 11.0626 4.27033 13.675V22.9515H7.99426ZM12.3721 16.1975C12.3813 15.8736 12.6406 15.6159 12.9549 15.6159C13.2693 15.6159 13.5263 15.8736 13.5377 16.1975V20.1715C13.5423 20.3346 13.4827 20.493 13.3725 20.6088C13.2624 20.7247 13.111 20.7909 12.9549 20.7909C12.7966 20.7909 12.6452 20.7247 12.535 20.6088C12.4249 20.493 12.3675 20.3346 12.3721 20.1715L12.3721 16.1975ZM15.0796 15.4812C15.0796 15.1502 15.3412 14.883 15.6625 14.883C15.9837 14.883 16.2453 15.1502 16.2453 15.4812V20.8901C16.2453 21.2211 15.9837 21.4906 15.6625 21.4906C15.3412 21.4906 15.0796 21.2211 15.0796 20.8901V15.4812ZM17.7872 14.7648C17.7872 14.4339 18.0487 14.1644 18.37 14.1644C18.6935 14.1644 18.9528 14.4339 18.9528 14.7648V21.6042C18.9528 21.9352 18.6935 22.2047 18.37 22.2047C18.0487 22.2047 17.7872 21.9352 17.7872 21.6042V14.7648ZM20.497 14.0485C20.497 13.7176 20.7563 13.4481 21.0798 13.4481C21.401 13.4481 21.6626 13.7176 21.6626 14.0485V22.3228C21.6626 22.6538 21.401 22.9233 21.0798 22.9233C20.7563 22.9233 20.497 22.6538 20.497 22.3228V14.0485ZM34.0369 16.1975C34.0484 15.8736 34.3054 15.6159 34.6197 15.6159C34.9341 15.6159 35.1934 15.8736 35.2025 16.1975V20.1715C35.2071 20.3346 35.1498 20.493 35.0396 20.6088C34.9295 20.7247 34.7781 20.7909 34.6198 20.7909C34.4637 20.7909 34.3123 20.7247 34.2022 20.6088C34.092 20.493 34.0324 20.3346 34.0369 20.1715L34.0369 16.1975ZM31.3294 15.4812C31.3294 15.1502 31.591 14.883 31.9122 14.883C32.2335 14.883 32.495 15.1502 32.495 15.4812V20.8901C32.495 21.2211 32.2335 21.4906 31.9122 21.4906C31.591 21.4906 31.3294 21.2211 31.3294 20.8901V15.4812ZM28.6219 14.7648C28.6219 14.4339 28.8812 14.1644 29.2047 14.1644C29.526 14.1644 29.7875 14.4339 29.7875 14.7648V21.6042C29.7875 21.9352 29.526 22.2047 29.2047 22.2047C28.8812 22.2047 28.6219 21.9352 28.6219 21.6042V14.7648ZM25.9121 14.0485C25.9121 13.7176 26.1737 13.4481 26.4949 13.4481C26.8184 13.4481 27.0777 13.7176 27.0777 14.0485V22.3228C27.0777 22.6538 26.8184 22.9233 26.4949 22.9233C26.1737 22.9233 25.9121 22.6538 25.9121 22.3228V14.0485ZM23.2046 13.3322C23.2046 13.0012 23.4662 12.7317 23.7874 12.7317C24.1086 12.7317 24.3702 13.0012 24.3702 13.3322V23.039C24.3702 23.37 24.1086 23.6395 23.7874 23.6395C23.4662 23.6395 23.2046 23.37 23.2046 23.039V13.3322ZM35.3882 13.4717V13.4741C34.6609 10.7885 33.2199 8.36767 31.2261 6.48338C29.9847 5.32024 28.5117 4.45027 26.9101 3.93258C26.8963 3.92785 26.8826 3.92548 26.8688 3.92076C25.8707 3.6087 24.8313 3.45031 23.7873 3.45031C21.027 3.47395 18.3769 4.55432 16.3486 6.4834L16.2063 6.61815V6.61578C16.1834 6.64179 16.1581 6.66543 16.1329 6.68671C14.2514 8.54486 12.8885 10.8877 12.1863 13.474L16.8717 12.2329L23.6426 10.441H23.6449C23.7412 10.4149 23.8422 10.4149 23.9408 10.441L30.7029 12.2282L35.3882 13.4693L35.3882 13.4717ZM15.5521 5.61376H10.931C10.0706 5.61376 9.21468 5.75797 8.40015 6.04638L8.37032 6.0582C6.66783 6.67048 5.21768 7.86909 4.27005 9.45066V6.93532C4.27693 3.14809 7.25516 0.0796043 10.931 0.0723419H26.4763V2.57116C25.5952 2.35603 24.6935 2.24964 23.7872 2.24964C20.7424 2.27328 17.8123 3.46477 15.5731 5.59241L15.5502 5.61369L15.5521 5.61376ZM12.1861 22.8977C12.9134 25.5833 14.3543 28.0041 16.3482 29.8884C16.7154 30.2288 17.1031 30.5456 17.507 30.8364C17.5345 30.8529 17.5598 30.8718 17.5827 30.8907C19.3976 32.2122 21.5659 32.9238 23.7867 32.9238C26.0075 32.9238 28.1761 32.2122 29.9907 30.8907C30.0137 30.8718 30.0389 30.8529 30.0664 30.8364C30.4703 30.5456 30.8581 30.2288 31.2252 29.8884C33.2191 28.0042 34.6601 25.5834 35.3874 22.8977L30.702 24.1388L23.9288 25.9308C23.8324 25.9568 23.7315 25.9568 23.6328 25.9308L16.8708 24.1436L12.1854 22.9024L12.1861 22.8977ZM29.7778 32.446C27.9605 33.5429 25.8932 34.1221 23.787 34.1221C21.6808 34.1221 19.6133 33.5429 17.7962 32.446V34.3348C17.7962 35.427 20.584 36.8337 22.555 37.8242C23.0254 38.0606 23.4498 38.2734 23.7895 38.4601C24.129 38.2734 24.5535 38.0606 25.0239 37.8242C26.9903 36.8337 29.7827 35.4294 29.7827 34.3348L29.7778 32.446ZM36.0188 21.4979C36.0394 21.4908 36.0578 21.486 36.0784 21.4813L36.7438 21.3064V15.0674L36.0784 14.8924C36.0578 14.8877 36.0394 14.883 36.0188 14.8759L30.4133 13.3936L23.787 11.6395L17.1607 13.3936L11.5552 14.8759C11.5368 14.883 11.5162 14.8877 11.4955 14.8924L10.8301 15.0674V21.304L11.4955 21.4789C11.5162 21.4836 11.5368 21.4884 11.5552 21.4954L17.1607 22.9777L23.787 24.7318L30.4133 22.9777L36.0188 21.4954V21.4979ZM23.2043 44.8713H0.91111V43.3914C4.28631 44.0581 7.76007 42.9588 10.1878 40.4552C11.4727 39.1337 12.3973 37.486 12.8677 35.6798C12.932 35.434 12.987 35.1834 13.0329 34.9351H16.7408C17.3213 36.5191 20.0495 37.8949 22.0411 38.8973C22.4793 39.1172 22.8786 39.3205 23.2021 39.4978L23.2043 44.8713Z" fill="#FAD053"/>
</svg>
